<?xml version="1.0" encoding="UTF-8"?>
<svg width="32" height="32" viewBox="0 0 32 32" xmlns="http://www.w3.org/2000/svg">
  <!-- 背景圆形 -->
  <circle cx="16" cy="16" r="16" fill="#fb7299"/>
  
  <!-- 猫咪头部 -->
  <ellipse cx="16" cy="18" rx="8" ry="6" fill="#ffffff" opacity="0.9"/>
  
  <!-- 猫咪耳朵 -->
  <path d="M 10 12 L 8 8 L 12 10 Z" fill="#ffffff" opacity="0.9"/>
  <path d="M 22 12 L 24 8 L 20 10 Z" fill="#ffffff" opacity="0.9"/>
  
  <!-- 耳朵内部 -->
  <path d="M 10 12 L 9 9 L 11 10 Z" fill="#fb7299"/>
  <path d="M 22 12 L 23 9 L 21 10 Z" fill="#fb7299"/>
  
  <!-- 眼睛 -->
  <circle cx="13" cy="16" r="1.5" fill="#333333"/>
  <circle cx="19" cy="16" r="1.5" fill="#333333"/>
  
  <!-- 鼻子 -->
  <path d="M 16 18 L 15 19 L 17 19 Z" fill="#fb7299"/>
  
  <!-- 嘴巴 -->
  <path d="M 16 19 Q 14 21 12 20" stroke="#333333" stroke-width="0.5" fill="none"/>
  <path d="M 16 19 Q 18 21 20 20" stroke="#333333" stroke-width="0.5" fill="none"/>
  
  <!-- 胡须 -->
  <line x1="8" y1="17" x2="12" y2="18" stroke="#333333" stroke-width="0.5"/>
  <line x1="8" y1="19" x2="12" y2="19" stroke="#333333" stroke-width="0.5"/>
  <line x1="20" y1="18" x2="24" y2="17" stroke="#333333" stroke-width="0.5"/>
  <line x1="20" y1="19" x2="24" y2="19" stroke="#333333" stroke-width="0.5"/>
</svg>
